<?xml version="1.0" encoding="UTF-8"?><svg id="Layer_2" xmlns="http://www.w3.org/2000/svg" xmlns:xlink="http://www.w3.org/1999/xlink" viewBox="0 0 256.3531 218.4094"><defs><style>.cls-1{clip-path:url(#clippath);}.cls-2{fill:none;}.cls-2,.cls-3,.cls-4,.cls-5,.cls-6,.cls-7,.cls-8,.cls-9,.cls-10,.cls-11,.cls-12{stroke-width:0px;}.cls-3{fill:url(#linear-gradient);}.cls-4{fill:url(#radial-gradient);}.cls-5{fill:url(#radial-gradient-2);}.cls-6{fill:url(#radial-gradient-3);}.cls-7{fill:url(#radial-gradient-4);}.cls-8{fill:url(#linear-gradient-4);}.cls-9{fill:url(#linear-gradient-2);}.cls-10{fill:url(#linear-gradient-3);}.cls-11{fill:url(#linear-gradient-5);}.cls-12{fill:url(#linear-gradient-6);}</style><radialGradient id="radial-gradient" cx="111.5836" cy="153.095" fx="111.5836" fy="153.095" r="122.5534" gradientTransform="translate(0 .006)" gradientUnits="userSpaceOnUse"><stop offset="0" stop-color="#2a41ea"/><stop offset=".2358" stop-color="#2940e5"/><stop offset="1" stop-color="#161832"/></radialGradient><radialGradient id="radial-gradient-2" cx="128.2629" cy="128.0151" fx="128.2629" fy="128.0151" r="70.1706" gradientTransform="translate(0 .006)" gradientUnits="userSpaceOnUse"><stop offset="0" stop-color="#2a41ea"/><stop offset="1" stop-color="#161832"/></radialGradient><linearGradient id="linear-gradient" x1="14.7467" y1="175.3484" x2="205.4668" y2="175.3484" gradientUnits="userSpaceOnUse"><stop offset="0" stop-color="#2c4ddf"/><stop offset="1" stop-color="#da67c6"/></linearGradient><linearGradient id="linear-gradient-2" x1="126.2587" y1="155.862" x2="247.6748" y2="155.862" xlink:href="#linear-gradient"/><linearGradient id="linear-gradient-3" x1="15.0867" y1="59.8385" x2="226.9668" y2="59.8385" xlink:href="#linear-gradient"/><linearGradient id="linear-gradient-4" x1="58.7979" y1="76.3032" x2="200.748" y2="76.3032" gradientUnits="userSpaceOnUse"><stop offset="0" stop-color="#283ecd"/><stop offset=".8714" stop-color="#da67c6"/></linearGradient><linearGradient id="linear-gradient-5" x1="122.3868" y1="100.6129" x2="164.4378" y2="100.6129" gradientUnits="userSpaceOnUse"><stop offset="0" stop-color="#161832"/><stop offset="1" stop-color="#2336c2"/></linearGradient><linearGradient id="linear-gradient-6" x1="102.6868" y1="68.7434" x2="230.7467" y2="68.7434" xlink:href="#linear-gradient-5"/><clipPath id="clippath"><path class="cls-2" d="M205.4668,180.7367c-14.8501,16.8997-34.6901,29.1995-57.29,34.6195-47.74,11.4498-95.6001-10.1798-119.98-50.1992-6.04-9.8999-10.6401-20.9297-13.4501-32.8695h21.4301c14.7999,41.9893,54.83,72.0789,101.8799,72.0789,25.5,0,48.9301-8.8399,67.4102-23.6296ZM104.0867,132.2874c10.26,15.0098,24.2001,27.2996,40.53,35.5595,1.5801.81,3.1899,1.58,4.8301,2.3,13.3999,5.9699,28.25,9.2898,43.8799,9.2898,4.76,0,9.4401-.31,14.03-.91,10.96-13.1498,18.96-28.8896,23.04-46.2393h-126.3101ZM122.9268,2.4094c-4.51,0-8.96.27-13.3301.81-19.28,2.3499-36.99,9.7398-51.73,20.8097q-.01-.01-.02.02C31.8768,43.5188,15.0967,74.3883,15.0867,109.1377v8.1299h16.6001v-8.1299c-.03-20.4897,6.85-39.5094,18.5599-54.7592,11.58-15.0997,27.88-26.5095,46.86-32.0295,5.7-1.67,11.64-2.79,17.76-3.33,8.5701-.75,16.97-.31,25.03,1.2h.02c38.48,3.6699,71.0699,27.5196,87.05,60.849C214.5168,35.7389,172.6568,2.4094,122.9268,2.4094ZM85.4967,65.3184c5.0599-4.2399,10.86-7.6099,17.16-9.9298h.01q.01-.01.02-.01c9.6199-5.9999,20.99-9.4598,33.1599-9.4598,23.21,0,43.48,12.5798,54.3601,31.2895-12.1101-24.9296-37.8201-41.8294-67.1801-41.8694-12.25-.02-23.8099,2.88-34.01,8.0499-24.16,12.2098-40.7201,37.0594-40.76,65.749v8.1299h49.9601v-8.1299c0-7.9698,3.8199-15.0598,9.7599-19.5597l.02-.02q.01,0,.02-.0099c4-3.04,8.97-4.8899,14.35-5.03h.02c2.26-.37,4.5801-.56,6.9399-.56,13.9601,0,26.3801,6.5999,34.3101,16.8597-3.23-16.0698-15.97-29.0195-32.73-32.2495-18.0701-3.4899-35.6899,5.2099-44.17,20.3197-2.0699,3.6799-3.6,7.7499-4.46,12.1098h-16.8199c2.1099-14.3897,9.49-26.8795,20.0399-35.6794Z"/></clipPath><radialGradient id="radial-gradient-3" cx="218.254" cy="143.4542" fx="231.6374" fy="129.7388" r="37.887" gradientUnits="userSpaceOnUse"><stop offset="0" stop-color="#fff" stop-opacity=".6"/><stop offset=".991" stop-color="#fff" stop-opacity="0"/></radialGradient><radialGradient id="radial-gradient-4" cx="64.4325" cy="59.7164" fx="86.0834" fy="37.5284" r="61.2913" xlink:href="#radial-gradient-3"/></defs><g id="logo"><path class="cls-2" d="M108.0166,89.5481c4.3701-2.47,9.21-4.2,14.3501-5.03-5.3799.14-10.3501,1.99-14.3501,5.03Z"/><path class="cls-2" d="M207.3567,178.5267c-.6199.74-1.25,1.48-1.8899,2.21"/><path class="cls-4" d="M109.8789,167.0245c.0801.05-.0801-.04,0,0-14.52-6.6699-26.3223-19.8573-32.332-34.7371h-41.3701c14.7998,41.9893,54.8301,72.0789,101.8799,72.0789,25.5,0,48.9302-8.8398,67.4102-23.6296.6399-.73,1.27-1.47,1.8899-2.21-4.5898.6-9.27.91-14.03.91-15.6299,0-30.48-3.3199-43.8799-9.2899-4.3799.97-8.9302,1.48-13.6001,1.48-5.3896,0-10.6926.305-15.6824-.975-.0298,0,.0298.01,0,0,0,0,.01,0,.0002,0"/><path class="cls-5" d="M109.8789,167.0245c-.0249-.015-.0127-.0062,0,0-.0127-.0062-.0249-.015,0,0,3.2397,1.46,6.7756,2.7273,10.2854,3.6273.0103,0,0,0,0,0,.0298.01-.0298,0,0,0,4.9897,1.28,10.2927.975,15.6824.975,4.6699,0,9.2202-.5099,13.6001-1.48-1.6401-.72-3.25-1.49-4.8301-2.2999-16.3301-8.2599-30.27-20.5497-40.5298-35.5594h-26.54c6.0098,14.8798,17.812,28.0672,32.332,34.7371Z"/><path class="cls-2" d="M122.3667,84.5181c-5.14.83-9.98,2.56-14.35,5.03,4-3.04,8.97-4.8899,14.35-5.03Z"/><path class="cls-2" d="M122.3667,84.5181c-5.14.83-9.98,2.56-14.35,5.03,4-3.04,8.97-4.8899,14.35-5.03Z"/><path class="cls-3" d="M205.4668,180.7367c-14.8501,16.8997-34.6901,29.1995-57.29,34.6195-47.74,11.4498-95.6001-10.1798-119.98-50.1992-6.04-9.8999-10.6401-20.9297-13.4501-32.8695h21.4301c14.7999,41.9893,54.83,72.0789,101.8799,72.0789,25.5,0,48.9301-8.8399,67.4102-23.6296Z"/><path class="cls-9" d="M230.3968,132.2874c-4.0801,17.3497-12.0801,33.0895-23.04,46.2393-4.59.6-9.27.91-14.03.91-15.6299,0-30.48-3.3199-43.8799-9.2898-1.6401-.72-3.25-1.49-4.8301-2.3-16.33-8.2599-30.27-20.5497-40.53-35.5595h126.3101Z"/><path class="cls-10" d="M226.9668,81.0682c-15.9801-33.3294-48.5701-57.1791-87.05-60.849h-.02c-8.0601-1.51-16.46-1.95-25.03-1.2-6.12.54-12.0601,1.66-17.76,3.33-18.98,5.5199-35.28,16.9297-46.86,32.0295-11.71,15.2498-18.59,34.2695-18.5599,54.7592v8.1299H15.0867v-8.1299c.01-34.7495,16.79-65.619,42.76-85.0887q.01-.03.02-.02c14.74-11.0698,32.45-18.4597,51.73-20.8097,4.3701-.54,8.8201-.81,13.3301-.81,49.73,0,91.59,33.3295,104.04,78.6588Z"/><path class="cls-8" d="M65.4568,100.9979h16.8199c.86-4.3599,2.39-8.4299,4.46-12.1098,8.4801-15.1098,26.1-23.8096,44.17-20.3197,16.76,3.23,29.5,16.1797,32.73,32.2495-7.9299-10.2599-20.35-16.8597-34.3101-16.8597-2.3599,0-4.6799.19-6.9399.56h-.02c-5.38.14-10.35,1.99-14.35,5.03q-.01.0099-.02.0099l-.02.02c-5.9399,4.4999-9.7599,11.5898-9.7599,19.5597v8.1299h-49.9601v-8.1299c.0399-28.6896,16.6-53.5392,40.76-65.749,10.2001-5.1699,21.76-8.0699,34.01-8.0499,29.36.04,55.0699,16.9397,67.1801,41.8694-10.8801-18.7097-31.1501-31.2895-54.3601-31.2895-12.1699,0-23.54,3.4599-33.1599,9.4598q-.01,0-.02.01h-.01c-6.3,2.32-12.1001,5.6899-17.16,9.9298-10.5499,8.7999-17.9301,21.2897-20.0399,35.6794Z"/><path class="cls-11" d="M164.4368,109.1377v8.1299h-16.4301v-8.1299c0-13.6198-11.15-24.6496-24.9-24.6396-.24,0-.48,0-.72.02,2.26-.37,4.5801-.56,6.9399-.56,13.9601,0,26.3801,6.5999,34.3101,16.8597v.01c.55,2.69.8201,5.4699.8,8.3099Z"/><path class="cls-12" d="M230.7467,109.1377v8.1299h-49.77v-8.1299c-.0699-31.7495-26.12-57.4191-58.1801-57.3591-7.0399.01-13.8199,1.2799-20.1099,3.5999,9.6199-5.9999,20.99-9.4598,33.1599-9.4598,23.21,0,43.48,12.5798,54.3601,31.2895,3.5599,7.3099,5.95,15.3198,6.9099,23.7896h16.67c-3.6801-41.1894-34.76-73.4588-73.87-80.7787,38.48,3.6699,71.0699,27.5196,87.05,60.849v.01c2.46,8.9399,3.7799,18.3498,3.7799,28.0596Z"/><g class="cls-1"><circle class="cls-6" cx="208.2967" cy="151.9571" r="48.0564"/><circle class="cls-7" cx="61.2913" cy="61.2913" r="61.2913"/></g></g></svg>